<svg width="282" height="258" viewBox="0 0 282 258" fill="none" xmlns="http://www.w3.org/2000/svg">
<g filter="url(#filter0_d_604_7)">
<path d="M157.283 203.314C157.283 198.039 156.324 193.404 154.407 189.409C152.488 185.413 150.171 181.258 147.454 176.942L132.83 151.769L118.925 173.106C116.048 177.422 113.73 180.938 111.972 183.655C110.374 186.372 109.095 188.769 108.136 190.847C107.337 192.925 106.858 194.923 106.698 196.841C106.538 198.599 106.458 200.757 106.458 203.314C106.458 206.031 106.858 208.828 107.657 211.705C108.616 214.422 110.054 216.979 111.972 219.376C113.89 221.774 116.447 223.772 119.644 225.37C123 226.808 127.076 227.528 131.871 227.528C136.665 227.528 140.661 226.729 143.858 225.13C147.054 223.532 149.612 221.534 151.53 219.137C153.607 216.739 155.046 214.182 155.845 211.465C156.804 208.588 157.283 205.871 157.283 203.314ZM269.482 69.538C269.482 75.2919 269.402 79.7671 269.243 82.9635C269.242 86.0004 269.003 88.7974 268.524 91.3545H257.256C257.255 84.0025 256.616 78.009 255.338 73.3738C254.059 68.5792 252.221 64.8232 249.824 62.106C247.426 59.2293 244.549 57.2314 241.193 56.1124C237.836 54.9938 234.16 54.4344 230.165 54.4343C223.132 54.4344 216.739 55.4733 210.986 57.5509C205.391 59.6288 200.037 62.8254 194.923 67.1406C189.808 71.2963 184.774 76.5706 179.819 82.9635C174.864 89.1969 169.59 96.6289 163.996 105.259L153.687 120.603L170.709 150.331C176.622 160.56 181.337 169.59 184.854 177.422C188.37 185.093 190.128 192.286 190.128 198.998C190.128 205.551 189.009 211.705 186.772 217.459C184.694 223.053 181.497 227.927 177.182 232.083C173.026 236.238 167.752 239.515 161.359 241.912C155.126 244.31 147.853 245.508 139.543 245.508C132.19 245.508 125.398 244.469 119.165 242.392C113.091 240.314 107.817 237.517 103.342 234.001C99.0261 230.325 95.5898 226.089 93.0327 221.294C90.6352 216.5 89.4365 211.465 89.4366 206.191C89.4365 195.962 94.471 183.016 104.54 167.353L123.959 137.625L94.9506 89.4365C90.6352 82.0846 86.5596 76.0911 82.7238 71.4559C79.0477 66.8211 75.4516 63.3049 71.9354 60.9073C68.579 58.3502 65.2226 56.672 61.8663 55.8727C58.5098 54.9139 54.9936 54.4344 51.3176 54.4343C47.1621 54.4344 43.4061 54.9938 40.0498 56.1124C36.8532 57.2314 34.0562 59.2293 31.6588 62.106C29.2614 64.8232 27.4234 68.5792 26.1448 73.3738C24.8661 78.009 24.2268 84.0025 24.2268 91.3545H12.959C12.4795 88.7974 12.1598 86.0004 12 82.9635C12 79.7671 12 75.2919 12 69.538C12 51.6375 15.4363 37.5726 22.3089 27.3435C29.3413 17.1147 39.2506 12.0002 52.0369 12C58.2701 12.0002 64.5833 13.3588 70.9764 16.0756C77.3695 18.6331 83.5228 22.2292 89.4366 26.864C95.5099 31.3394 101.184 36.6936 106.458 42.9267C111.732 49.1601 116.447 55.8729 120.603 63.065L145.057 105.739L167.353 71.9354C171.987 64.9031 176.862 57.8707 181.977 50.8381C187.091 43.6461 192.286 37.1731 197.56 31.4191C202.834 25.6655 208.108 21.0305 213.383 17.5141C218.817 13.8382 224.091 12.0002 229.206 12C241.992 12.0002 251.901 17.1147 258.934 27.3435C265.966 37.5726 269.482 51.6375 269.482 69.538Z" fill="url(#paint0_linear_604_7)"/>
</g>
<defs>
<filter id="filter0_d_604_7" x="0" y="0" width="281.482" height="257.508" filterUnits="userSpaceOnUse" color-interpolation-filters="sRGB">
<feFlood flood-opacity="0" result="BackgroundImageFix"/>
<feColorMatrix in="SourceAlpha" type="matrix" values="0 0 0 0 0 0 0 0 0 0 0 0 0 0 0 0 0 0 127 0" result="hardAlpha"/>
<feOffset/>
<feGaussianBlur stdDeviation="6"/>
<feColorMatrix type="matrix" values="0 0 0 0 0.360784 0 0 0 0 0.776471 0 0 0 0 0.533333 0 0 0 1 0"/>
<feBlend mode="normal" in2="BackgroundImageFix" result="effect1_dropShadow_604_7"/>
<feBlend mode="normal" in="SourceGraphic" in2="effect1_dropShadow_604_7" result="shape"/>
</filter>
<linearGradient id="paint0_linear_604_7" x1="12" y1="-29.0314" x2="282.831" y2="-17.6985" gradientUnits="userSpaceOnUse">
<stop stop-color="#0FA94D"/>
<stop offset="1" stop-color="#5CC688"/>
</linearGradient>
</defs>
</svg>
