<svg width="258" height="234" viewBox="0 0 258 234" fill="none" xmlns="http://www.w3.org/2000/svg">
<path d="M145.283 191.314C145.283 186.039 144.324 181.404 142.407 177.409C140.488 173.413 138.171 169.258 135.454 164.942L120.83 139.769L106.925 161.106C104.048 165.422 101.73 168.938 99.9723 171.655C98.3739 174.372 97.0952 176.769 96.1364 178.847C95.3372 180.925 94.8577 182.923 94.6979 184.841C94.538 186.599 94.4581 188.757 94.4582 191.314C94.4581 194.031 94.8577 196.828 95.6569 199.705C96.6158 202.422 98.0542 204.979 99.9723 207.376C101.89 209.774 104.447 211.772 107.644 213.37C111 214.808 115.076 215.528 119.871 215.528C124.665 215.528 128.661 214.729 131.858 213.13C135.054 211.532 137.612 209.534 139.53 207.137C141.607 204.739 143.046 202.182 143.845 199.465C144.804 196.588 145.283 193.871 145.283 191.314ZM257.482 57.538C257.482 63.2919 257.402 67.7671 257.243 70.9635C257.242 74.0004 257.003 76.7974 256.524 79.3545H245.256C245.255 72.0025 244.616 66.009 243.338 61.3738C242.059 56.5792 240.221 52.8232 237.824 50.106C235.426 47.2293 232.549 45.2314 229.193 44.1124C225.836 42.9938 222.16 42.4344 218.165 42.4343C211.132 42.4344 204.739 43.4733 198.986 45.5509C193.391 47.6288 188.037 50.8254 182.923 55.1406C177.808 59.2963 172.774 64.5706 167.819 70.9635C162.864 77.1969 157.59 84.6289 151.996 93.2595L141.687 108.603L158.709 138.331C164.622 148.56 169.337 157.59 172.854 165.422C176.37 173.093 178.128 180.286 178.128 186.998C178.128 193.551 177.009 199.705 174.772 205.459C172.694 211.053 169.497 215.927 165.182 220.083C161.026 224.238 155.752 227.515 149.359 229.912C143.126 232.31 135.853 233.508 127.543 233.508C120.19 233.508 113.398 232.469 107.165 230.392C101.091 228.314 95.8166 225.517 91.3416 222.001C87.0261 218.325 83.5898 214.089 81.0327 209.294C78.6352 204.5 77.4365 199.465 77.4366 194.191C77.4365 183.962 82.471 171.016 92.5403 155.353L111.959 125.625L82.9506 77.4365C78.6352 70.0846 74.5596 64.0911 70.7238 59.4559C67.0477 54.8211 63.4516 51.3049 59.9354 48.9073C56.579 46.3502 53.2226 44.672 49.8663 43.8727C46.5098 42.9139 42.9936 42.4344 39.3176 42.4343C35.1621 42.4344 31.4061 42.9938 28.0498 44.1124C24.8532 45.2314 22.0562 47.2293 19.6588 50.106C17.2614 52.8232 15.4234 56.5792 14.1448 61.3738C12.8661 66.009 12.2268 72.0025 12.2268 79.3545H0.958972C0.479481 76.7974 0.159826 74.0004 5.11449e-06 70.9635C-1.70483e-06 67.7671 -1.70483e-06 63.2919 5.11449e-06 57.538C-1.70483e-06 39.6375 3.43629 25.5726 10.3089 15.3435C17.3413 5.11471 27.2506 0.000238676 40.0369 0C46.2701 0.000238676 52.5833 1.35876 58.9764 4.07561C65.3695 6.63307 71.5228 10.2292 77.4366 14.864C83.5099 19.3394 89.1838 24.6936 94.4582 30.9267C99.7324 37.1601 104.447 43.8729 108.603 51.065L133.057 93.739L155.353 59.9354C159.987 52.9031 164.862 45.8707 169.977 38.8381C175.091 31.6461 180.286 25.1731 185.56 19.4191C190.834 13.6655 196.108 9.03049 201.383 5.51406C206.817 1.83824 212.091 0.000238676 217.206 0C229.992 0.000238676 239.901 5.11471 246.934 15.3435C253.966 25.5726 257.482 39.6375 257.482 57.538Z" fill="url(#paint0_linear_623_6)"/>
<defs>
<linearGradient id="paint0_linear_623_6" x1="7.55617e-07" y1="-41.0314" x2="270.831" y2="-29.6985" gradientUnits="userSpaceOnUse">
<stop stop-color="#5D2CD6"/>
<stop offset="1" stop-color="#7F56E1"/>
</linearGradient>
</defs>
</svg>
