<svg width="279" height="255" viewBox="0 0 279 255" fill="none" xmlns="http://www.w3.org/2000/svg">
<g filter="url(#filter0_d_604_7)">
<path d="M156.283 202.314C156.283 197.039 155.324 192.404 153.407 188.409C151.488 184.413 149.171 180.258 146.454 175.942L131.83 150.769L117.925 172.106C115.048 176.422 112.73 179.938 110.972 182.655C109.374 185.372 108.095 187.769 107.136 189.847C106.337 191.925 105.858 193.923 105.698 195.841C105.538 197.599 105.458 199.757 105.458 202.314C105.458 205.031 105.858 207.828 106.657 210.705C107.616 213.422 109.054 215.979 110.972 218.376C112.89 220.774 115.447 222.772 118.644 224.37C122 225.808 126.076 226.528 130.871 226.528C135.665 226.528 139.661 225.729 142.858 224.13C146.054 222.532 148.612 220.534 150.53 218.137C152.607 215.739 154.046 213.182 154.845 210.465C155.804 207.588 156.283 204.871 156.283 202.314ZM268.482 68.538C268.482 74.2919 268.402 78.7671 268.243 81.9635C268.242 85.0004 268.003 87.7974 267.524 90.3545H256.256C256.255 83.0025 255.616 77.009 254.338 72.3738C253.059 67.5792 251.221 63.8232 248.824 61.106C246.426 58.2293 243.549 56.2314 240.193 55.1124C236.836 53.9938 233.16 53.4344 229.165 53.4343C222.132 53.4344 215.739 54.4733 209.986 56.5509C204.391 58.6288 199.037 61.8254 193.923 66.1406C188.808 70.2963 183.774 75.5706 178.819 81.9635C173.864 88.1969 168.59 95.6289 162.996 104.259L152.687 119.603L169.709 149.331C175.622 159.56 180.337 168.59 183.854 176.422C187.37 184.093 189.128 191.286 189.128 197.998C189.128 204.551 188.009 210.705 185.772 216.459C183.694 222.053 180.497 226.927 176.182 231.083C172.026 235.238 166.752 238.515 160.359 240.912C154.126 243.31 146.853 244.508 138.543 244.508C131.19 244.508 124.398 243.469 118.165 241.392C112.091 239.314 106.817 236.517 102.342 233.001C98.0261 229.325 94.5898 225.089 92.0327 220.294C89.6352 215.5 88.4365 210.465 88.4366 205.191C88.4365 194.962 93.471 182.016 103.54 166.353L122.959 136.625L93.9506 88.4365C89.6352 81.0846 85.5596 75.0911 81.7238 70.4559C78.0477 65.8211 74.4516 62.3049 70.9354 59.9073C67.579 57.3502 64.2226 55.672 60.8663 54.8727C57.5098 53.9139 53.9936 53.4344 50.3176 53.4343C46.1621 53.4344 42.4061 53.9938 39.0498 55.1124C35.8532 56.2314 33.0562 58.2293 30.6588 61.106C28.2614 63.8232 26.4234 67.5792 25.1448 72.3738C23.8661 77.009 23.2268 83.0025 23.2268 90.3545H11.959C11.4795 87.7974 11.1598 85.0004 11 81.9635C11 78.7671 11 74.2919 11 68.538C11 50.6375 14.4363 36.5726 21.3089 26.3435C28.3413 16.1147 38.2506 11.0002 51.0369 11C57.2701 11.0002 63.5833 12.3588 69.9764 15.0756C76.3695 17.6331 82.5228 21.2292 88.4366 25.864C94.5099 30.3394 100.184 35.6936 105.458 41.9267C110.732 48.1601 115.447 54.8729 119.603 62.065L144.057 104.739L166.353 70.9354C170.987 63.9031 175.862 56.8707 180.977 49.8381C186.091 42.6461 191.286 36.1731 196.56 30.4191C201.834 24.6655 207.108 20.0305 212.383 16.5141C217.817 12.8382 223.091 11.0002 228.206 11C240.992 11.0002 250.901 16.1147 257.934 26.3435C264.966 36.5726 268.482 50.6375 268.482 68.538Z" fill="url(#paint0_linear_604_7)" fill-opacity="0.75"/>
</g>
<defs>
<filter id="filter0_d_604_7" x="0.723642" y="0.723642" width="278.035" height="254.061" filterUnits="userSpaceOnUse" color-interpolation-filters="sRGB">
<feFlood flood-opacity="0" result="BackgroundImageFix"/>
<feColorMatrix in="SourceAlpha" type="matrix" values="0 0 0 0 0 0 0 0 0 0 0 0 0 0 0 0 0 0 127 0" result="hardAlpha"/>
<feOffset/>
<feGaussianBlur stdDeviation="5.13818"/>
<feColorMatrix type="matrix" values="0 0 0 0 0.8 0 0 0 0 0 0 0 0 0 1 0 0 0 0.5 0"/>
<feBlend mode="normal" in2="BackgroundImageFix" result="effect1_dropShadow_604_7"/>
<feBlend mode="normal" in="SourceGraphic" in2="effect1_dropShadow_604_7" result="shape"/>
</filter>
<linearGradient id="paint0_linear_604_7" x1="11" y1="-30.0314" x2="231.78" y2="7.44332" gradientUnits="userSpaceOnUse">
<stop stop-color="#8F00FF" stop-opacity="0.15"/>
<stop offset="1" stop-color="#0066FF" stop-opacity="0.68"/>
</linearGradient>
</defs>
</svg>
