<svg width="861" height="161" viewBox="0 0 861 161" fill="none" xmlns="http://www.w3.org/2000/svg">
<g filter="url(#filter0_d_118_19)">
<path d="M223.616 139.984H210.358V29.8171H250.448C260.654 29.8171 268.441 32.6055 273.807 38.1822C279.173 43.759 281.857 51.5454 281.857 61.5415C281.857 70.4853 279.542 77.6404 274.912 83.0067C270.282 88.3731 263.548 91.4771 254.709 92.3189L282.803 139.984H267.967L241.136 92.9502H223.616V139.984ZM250.132 81.7441C255.709 81.7441 260.023 80.3762 263.074 77.6404C266.231 74.7994 267.809 70.801 267.809 65.6451V57.4378C267.809 52.282 266.231 48.3361 263.074 45.6004C260.023 42.7594 255.709 41.3389 250.132 41.3389H223.616V81.7441H250.132Z" fill="url(#paint0_linear_118_19)" fill-opacity="0.75"/>
<path d="M368.919 139.984C363.973 139.984 360.448 138.722 358.344 136.196C356.239 133.671 354.924 130.514 354.398 126.726H353.609C351.82 131.461 348.926 135.197 344.928 137.933C341.035 140.563 335.774 141.878 329.145 141.878C320.622 141.878 313.835 139.669 308.784 135.249C303.734 130.83 301.208 124.78 301.208 117.099C301.208 109.523 303.944 103.683 309.416 99.5792C314.992 95.4755 323.936 93.4237 336.247 93.4237H353.609V85.3742C353.609 79.3766 351.925 74.9047 348.558 71.9585C345.191 68.907 340.403 67.3813 334.195 67.3813C328.724 67.3813 324.252 68.4861 320.78 70.6958C317.307 72.8002 314.519 75.6938 312.414 79.3766L303.891 73.0633C304.944 70.9588 306.364 68.907 308.153 66.9078C309.942 64.9086 312.151 63.1724 314.782 61.6993C317.412 60.121 320.411 58.9109 323.778 58.0692C327.145 57.1222 330.881 56.6487 334.984 56.6487C344.56 56.6487 352.136 59.0688 357.712 63.909C363.394 68.7492 366.235 75.4834 366.235 84.1116V128.936H377.599V139.984H368.919ZM331.354 131.304C334.616 131.304 337.562 130.935 340.193 130.199C342.929 129.357 345.296 128.305 347.295 127.042C349.295 125.674 350.82 124.096 351.873 122.307C353.03 120.413 353.609 118.414 353.609 116.309V102.894H336.247C328.671 102.894 323.147 103.946 319.675 106.05C316.202 108.155 314.466 111.206 314.466 115.205V118.519C314.466 122.728 315.939 125.937 318.886 128.147C321.937 130.251 326.093 131.304 331.354 131.304Z" fill="url(#paint1_linear_118_19)" fill-opacity="0.75"/>
<path d="M393.952 139.984V58.5427H405.632V68.0126H406.263C407.526 64.856 409.315 62.1728 411.63 59.9632C413.944 57.7535 417.364 56.6487 421.889 56.6487C426.624 56.6487 430.149 57.8587 432.464 60.2788C434.778 62.5937 436.199 65.6451 436.725 69.4331H437.198C438.672 65.7504 440.776 62.6989 443.512 60.2788C446.248 57.8587 450.036 56.6487 454.876 56.6487C461.505 56.6487 465.924 58.9636 468.134 63.5933C470.449 68.2231 471.606 74.8521 471.606 83.4802V139.984H459.926V85.5321C459.926 78.5874 459.19 73.7998 457.717 71.1693C456.349 68.4335 453.771 67.0656 449.983 67.0656C446.616 67.0656 443.88 68.1705 441.776 70.3801C439.671 72.4846 438.619 75.7464 438.619 80.1658V139.984H426.939V85.5321C426.939 78.5874 426.203 73.7998 424.73 71.1693C423.362 68.4335 420.836 67.0656 417.154 67.0656C413.787 67.0656 410.998 68.1705 408.789 70.3801C406.684 72.4846 405.632 75.7464 405.632 80.1658V139.984H393.952Z" fill="url(#paint2_linear_118_19)" fill-opacity="0.75"/>
<path d="M492.22 29.8171H530.89C541.727 29.8171 549.987 32.4477 555.669 37.7087C561.456 42.9698 564.35 50.1249 564.35 59.174C564.35 65.4873 562.772 70.538 559.615 74.3259C556.564 78.0087 552.144 80.6919 546.357 82.3754V83.3224C553.197 85.006 558.458 87.9522 562.14 92.161C565.928 96.3699 567.822 102.21 567.822 109.68C567.822 118.94 564.876 126.306 558.984 131.777C553.197 137.249 545.042 139.984 534.52 139.984H492.22V29.8171ZM527.259 123.412C532.941 123.412 537.098 122.465 539.728 120.571C542.359 118.677 543.674 115.205 543.674 110.154V105.577C543.674 100.526 542.359 97.0539 539.728 95.1599C537.098 93.2659 532.941 92.3189 527.259 92.3189H515.264V123.412H527.259ZM524.26 76.5356C529.837 76.5356 533.888 75.6412 536.414 73.8524C538.939 71.9585 540.202 68.5914 540.202 63.7511V59.0162C540.202 54.176 538.939 50.8615 536.414 49.0727C533.888 47.2839 529.837 46.3895 524.26 46.3895H515.264V76.5356H524.26Z" fill="url(#paint3_linear_118_19)" fill-opacity="0.75"/>
<path d="M622.055 141.878C615.742 141.878 610.06 140.931 605.009 139.037C599.959 137.038 595.644 134.197 592.067 130.514C588.595 126.832 585.911 122.36 584.017 117.099C582.123 111.838 581.177 105.892 581.177 99.2635C581.177 92.6345 582.123 86.6895 584.017 81.4284C585.911 76.1673 588.595 71.6954 592.067 68.0126C595.644 64.3299 599.959 61.5415 605.009 59.6475C610.06 57.6483 615.742 56.6487 622.055 56.6487C628.368 56.6487 634.05 57.6483 639.101 59.6475C644.152 61.5415 648.413 64.3299 651.886 68.0126C655.463 71.6954 658.199 76.1673 660.093 81.4284C661.987 86.6895 662.934 92.6345 662.934 99.2635C662.934 105.892 661.987 111.838 660.093 117.099C658.199 122.36 655.463 126.832 651.886 130.514C648.413 134.197 644.152 137.038 639.101 139.037C634.05 140.931 628.368 141.878 622.055 141.878ZM622.055 124.517C627.316 124.517 631.42 122.886 634.366 119.624C637.312 116.362 638.785 111.732 638.785 105.735V92.7924C638.785 86.7947 637.312 82.165 634.366 78.9031C631.42 75.6412 627.316 74.0103 622.055 74.0103C616.794 74.0103 612.69 75.6412 609.744 78.9031C606.798 82.165 605.325 86.7947 605.325 92.7924V105.735C605.325 111.732 606.798 116.362 609.744 119.624C612.69 122.886 616.794 124.517 622.055 124.517Z" fill="url(#paint4_linear_118_19)" fill-opacity="0.75"/>
<path d="M723.006 139.984C714.589 139.984 708.328 137.775 704.224 133.355C700.121 128.936 698.069 123.307 698.069 116.467V76.6934H675.972V58.5427H690.335C693.807 58.5427 696.28 57.8587 697.753 56.4908C699.226 55.123 699.963 52.5976 699.963 48.9149V29.8171H721.428V58.5427H753.153V76.6934H721.428V121.834H753.153V139.984H723.006Z" fill="url(#paint5_linear_118_19)" fill-opacity="0.75"/>
<path d="M810.384 141.878C801.335 141.878 793.443 140.51 786.709 137.775C780.08 135.039 775.082 131.304 771.715 126.569L784.815 114.415C787.972 117.888 791.655 120.624 795.864 122.623C800.178 124.517 805.07 125.464 810.542 125.464C815.172 125.464 818.802 124.78 821.432 123.412C824.063 121.939 825.378 119.729 825.378 116.783C825.378 114.468 824.484 112.89 822.695 112.048C820.906 111.101 818.434 110.364 815.277 109.838L802.177 107.786C798.494 107.26 795.074 106.471 791.918 105.419C788.761 104.262 786.025 102.736 783.71 100.842C781.396 98.9479 779.554 96.633 778.186 93.8972C776.818 91.1614 776.135 87.847 776.135 83.9537C776.135 75.4308 779.396 68.7492 785.92 63.909C792.444 59.0688 801.598 56.6487 813.383 56.6487C821.38 56.6487 828.167 57.7535 833.743 59.9632C839.425 62.0676 843.95 65.119 847.317 69.1175L835.637 82.3754C833.217 79.7449 830.113 77.5352 826.325 75.7464C822.537 73.9577 817.96 73.0633 812.594 73.0633C803.545 73.0633 799.02 75.799 799.02 81.2706C799.02 83.6907 799.915 85.3742 801.703 86.3212C803.492 87.163 805.965 87.8469 809.122 88.3731L822.064 90.4249C825.747 90.951 829.166 91.7928 832.323 92.9502C835.48 94.0024 838.215 95.4755 840.53 97.3695C842.95 99.2635 844.844 101.578 846.212 104.314C847.58 107.05 848.264 110.364 848.264 114.258C848.264 122.781 844.95 129.515 838.321 134.46C831.797 139.406 822.485 141.878 810.384 141.878Z" fill="url(#paint6_linear_118_19)" fill-opacity="0.75"/>
<path d="M97.2188 124.219C97.2187 121.125 96.6562 118.406 95.5312 116.062C94.4062 113.719 93.0468 111.281 91.4531 108.75L82.875 93.9844L74.7188 106.5C73.0312 109.031 71.6718 111.094 70.6406 112.687C69.7031 114.281 68.9531 115.688 68.3906 116.906C67.9218 118.125 67.6406 119.297 67.5469 120.422C67.4531 121.453 67.4062 122.719 67.4063 124.219C67.4062 125.813 67.6406 127.453 68.1094 129.141C68.6718 130.734 69.5156 132.234 70.6406 133.641C71.7656 135.047 73.2656 136.219 75.1406 137.156C77.1093 138 79.4999 138.422 82.3125 138.422C85.1249 138.422 87.4687 137.953 89.3438 137.016C91.2187 136.078 92.7187 134.906 93.8438 133.5C95.0624 132.094 95.9062 130.594 96.375 129C96.9374 127.313 97.2187 125.719 97.2188 124.219ZM163.031 45.75C163.031 49.1251 162.984 51.7501 162.891 53.625C162.89 55.4063 162.75 57.047 162.469 58.5469H155.859C155.859 54.2345 155.484 50.7188 154.734 48C153.984 45.1876 152.906 42.9845 151.5 41.3906C150.094 39.7032 148.406 38.5314 146.438 37.875C144.469 37.2189 142.312 36.8907 139.969 36.8906C135.844 36.8907 132.094 37.5001 128.719 38.7188C125.437 39.9376 122.297 41.8126 119.297 44.3438C116.297 46.7813 113.344 49.8751 110.438 53.625C107.531 57.2813 104.437 61.6407 101.156 66.7031L95.1094 75.7031L105.094 93.1406C108.562 99.1407 111.328 104.438 113.391 109.031C115.453 113.531 116.484 117.75 116.484 121.687C116.484 125.531 115.828 129.141 114.516 132.516C113.297 135.797 111.422 138.656 108.891 141.094C106.453 143.531 103.359 145.453 99.6094 146.859C95.953 148.266 91.6874 148.969 86.8125 148.969C82.4999 148.969 78.5155 148.359 74.8594 147.141C71.2968 145.922 68.2031 144.281 65.5781 142.219C63.0468 140.062 61.0312 137.578 59.5313 134.766C58.125 131.953 57.4218 129 57.4219 125.906C57.4218 119.906 60.375 112.313 66.2813 103.125L77.6719 85.6875L60.6563 57.4219C58.125 53.1095 55.7343 49.5938 53.4844 46.875C51.3281 44.1563 49.2187 42.0939 47.1563 40.6875C45.1875 39.1876 43.2187 38.2032 41.25 37.7344C39.2812 37.172 37.2187 36.8907 35.0625 36.8906C32.625 36.8907 30.4219 37.2189 28.4531 37.875C26.5781 38.5314 24.9375 39.7032 23.5313 41.3906C22.125 42.9845 21.0469 45.1876 20.2969 48C19.5469 50.7188 19.1719 54.2345 19.1719 58.5469H12.5625C12.2812 57.047 12.0937 55.4063 12 53.625C12 51.7501 12 49.1251 12 45.75C12 35.2501 14.0156 27.0001 18.0469 21C22.1719 15.0001 27.9844 12.0001 35.4844 12C39.1406 12.0001 42.8437 12.797 46.5938 14.3906C50.3437 15.8908 53.9531 18.0001 57.4219 20.7188C60.9843 23.3439 64.3124 26.4845 67.4063 30.1406C70.4999 33.797 73.2656 37.7345 75.7031 41.9531L90.0469 66.9844L103.125 47.1562C105.844 43.0313 108.703 38.9064 111.703 34.7812C114.703 30.5626 117.75 26.7657 120.844 23.3906C123.937 20.0157 127.031 17.297 130.125 15.2344C133.312 13.0783 136.406 12.0001 139.406 12C146.906 12.0001 152.719 15.0001 156.844 21C160.969 27.0001 163.031 35.2501 163.031 45.75Z" fill="url(#paint7_linear_118_19)" fill-opacity="0.75"/>
</g>
<defs>
<filter id="filter0_d_118_19" x="0" y="0" width="860.264" height="160.969" filterUnits="userSpaceOnUse" color-interpolation-filters="sRGB">
<feFlood flood-opacity="0" result="BackgroundImageFix"/>
<feColorMatrix in="SourceAlpha" type="matrix" values="0 0 0 0 0 0 0 0 0 0 0 0 0 0 0 0 0 0 127 0" result="hardAlpha"/>
<feOffset/>
<feGaussianBlur stdDeviation="6"/>
<feColorMatrix type="matrix" values="0 0 0 0 0.8 0 0 0 0 0 0 0 0 0 1 0 0 0 0.5 0"/>
<feBlend mode="normal" in2="BackgroundImageFix" result="effect1_dropShadow_118_19"/>
<feBlend mode="normal" in="SourceGraphic" in2="effect1_dropShadow_118_19" result="shape"/>
</filter>
<linearGradient id="paint0_linear_118_19" x1="12" y1="-12.0677" x2="848.264" y2="181.692" gradientUnits="userSpaceOnUse">
<stop stop-color="#8F00FF" stop-opacity="0.15"/>
<stop offset="1" stop-color="#0066FF" stop-opacity="0.68"/>
</linearGradient>
<linearGradient id="paint1_linear_118_19" x1="12" y1="-12.0677" x2="848.264" y2="181.692" gradientUnits="userSpaceOnUse">
<stop stop-color="#8F00FF" stop-opacity="0.15"/>
<stop offset="1" stop-color="#0066FF" stop-opacity="0.68"/>
</linearGradient>
<linearGradient id="paint2_linear_118_19" x1="12" y1="-12.0677" x2="848.264" y2="181.692" gradientUnits="userSpaceOnUse">
<stop stop-color="#8F00FF" stop-opacity="0.15"/>
<stop offset="1" stop-color="#0066FF" stop-opacity="0.68"/>
</linearGradient>
<linearGradient id="paint3_linear_118_19" x1="12" y1="-12.0677" x2="848.264" y2="181.692" gradientUnits="userSpaceOnUse">
<stop stop-color="#8F00FF" stop-opacity="0.15"/>
<stop offset="1" stop-color="#0066FF" stop-opacity="0.68"/>
</linearGradient>
<linearGradient id="paint4_linear_118_19" x1="12" y1="-12.0677" x2="848.264" y2="181.692" gradientUnits="userSpaceOnUse">
<stop stop-color="#8F00FF" stop-opacity="0.15"/>
<stop offset="1" stop-color="#0066FF" stop-opacity="0.68"/>
</linearGradient>
<linearGradient id="paint5_linear_118_19" x1="12" y1="-12.0677" x2="848.264" y2="181.692" gradientUnits="userSpaceOnUse">
<stop stop-color="#8F00FF" stop-opacity="0.15"/>
<stop offset="1" stop-color="#0066FF" stop-opacity="0.68"/>
</linearGradient>
<linearGradient id="paint6_linear_118_19" x1="12" y1="-12.0677" x2="848.264" y2="181.692" gradientUnits="userSpaceOnUse">
<stop stop-color="#8F00FF" stop-opacity="0.15"/>
<stop offset="1" stop-color="#0066FF" stop-opacity="0.68"/>
</linearGradient>
<linearGradient id="paint7_linear_118_19" x1="12" y1="-12.0677" x2="848.264" y2="181.692" gradientUnits="userSpaceOnUse">
<stop stop-color="#8F00FF" stop-opacity="0.15"/>
<stop offset="1" stop-color="#0066FF" stop-opacity="0.68"/>
</linearGradient>
</defs>
</svg>
