<svg width="837" height="137" viewBox="0 0 837 137" fill="none" xmlns="http://www.w3.org/2000/svg">
<path d="M212.258 129.167H199V19H239.09C249.296 19 257.082 21.7884 262.449 27.3651C267.815 32.9419 270.498 40.7283 270.498 50.7244C270.498 59.6682 268.183 66.8233 263.554 72.1896C258.924 77.556 252.19 80.66 243.351 81.5018L271.445 129.167H256.609L229.777 82.1331H212.258V129.167ZM238.774 70.927C244.351 70.927 248.665 69.5591 251.716 66.8233C254.873 63.9823 256.451 59.9839 256.451 54.828V46.6207C256.451 41.4649 254.873 37.519 251.716 34.7833C248.665 31.9423 244.351 30.5218 238.774 30.5218H212.258V70.927H238.774Z" fill="url(#paint0_linear_617_9)"/>
<path d="M212.258 129.167H199V19H239.09C249.296 19 257.082 21.7884 262.449 27.3651C267.815 32.9419 270.498 40.7283 270.498 50.7244C270.498 59.6682 268.183 66.8233 263.554 72.1896C258.924 77.556 252.19 80.66 243.351 81.5018L271.445 129.167H256.609L229.777 82.1331H212.258V129.167ZM238.774 70.927C244.351 70.927 248.665 69.5591 251.716 66.8233C254.873 63.9823 256.451 59.9839 256.451 54.828V46.6207C256.451 41.4649 254.873 37.519 251.716 34.7833C248.665 31.9423 244.351 30.5218 238.774 30.5218H212.258V70.927H238.774Z" fill="white" fill-opacity="0.95"/>
<path d="M357.56 129.167C352.615 129.167 349.09 127.905 346.985 125.379C344.881 122.854 343.566 119.697 343.04 115.909H342.25C340.462 120.644 337.568 124.38 333.57 127.115C329.676 129.746 324.415 131.061 317.786 131.061C309.263 131.061 302.477 128.852 297.426 124.432C292.375 120.013 289.85 113.963 289.85 106.282C289.85 98.7056 292.586 92.8657 298.057 88.7621C303.634 84.6584 312.578 82.6066 324.889 82.6066H342.25V74.5571C342.25 68.5595 340.567 64.0876 337.2 61.1413C333.833 58.0899 329.045 56.5642 322.837 56.5642C317.366 56.5642 312.894 57.669 309.421 59.8787C305.949 61.9831 303.161 64.8767 301.056 68.5595L292.533 62.2462C293.585 60.1417 295.006 58.0899 296.795 56.0907C298.583 54.0915 300.793 52.3553 303.424 50.8822C306.054 49.3039 309.053 48.0938 312.42 47.2521C315.787 46.3051 319.523 45.8316 323.626 45.8316C333.201 45.8316 340.777 48.2517 346.354 53.0919C352.036 57.9321 354.877 64.6663 354.877 73.2945V118.119H366.241V129.167H357.56ZM319.996 120.486C323.258 120.486 326.204 120.118 328.835 119.382C331.57 118.54 333.938 117.488 335.937 116.225C337.936 114.857 339.462 113.279 340.514 111.49C341.672 109.596 342.25 107.597 342.25 105.492V92.0766H324.889C317.313 92.0766 311.789 93.1288 308.316 95.2332C304.844 97.3377 303.108 100.389 303.108 104.388V107.702C303.108 111.911 304.581 115.12 307.527 117.33C310.579 119.434 314.735 120.486 319.996 120.486Z" fill="url(#paint1_linear_617_9)"/>
<path d="M357.56 129.167C352.615 129.167 349.09 127.905 346.985 125.379C344.881 122.854 343.566 119.697 343.04 115.909H342.25C340.462 120.644 337.568 124.38 333.57 127.115C329.676 129.746 324.415 131.061 317.786 131.061C309.263 131.061 302.477 128.852 297.426 124.432C292.375 120.013 289.85 113.963 289.85 106.282C289.85 98.7056 292.586 92.8657 298.057 88.7621C303.634 84.6584 312.578 82.6066 324.889 82.6066H342.25V74.5571C342.25 68.5595 340.567 64.0876 337.2 61.1413C333.833 58.0899 329.045 56.5642 322.837 56.5642C317.366 56.5642 312.894 57.669 309.421 59.8787C305.949 61.9831 303.161 64.8767 301.056 68.5595L292.533 62.2462C293.585 60.1417 295.006 58.0899 296.795 56.0907C298.583 54.0915 300.793 52.3553 303.424 50.8822C306.054 49.3039 309.053 48.0938 312.42 47.2521C315.787 46.3051 319.523 45.8316 323.626 45.8316C333.201 45.8316 340.777 48.2517 346.354 53.0919C352.036 57.9321 354.877 64.6663 354.877 73.2945V118.119H366.241V129.167H357.56ZM319.996 120.486C323.258 120.486 326.204 120.118 328.835 119.382C331.57 118.54 333.938 117.488 335.937 116.225C337.936 114.857 339.462 113.279 340.514 111.49C341.672 109.596 342.25 107.597 342.25 105.492V92.0766H324.889C317.313 92.0766 311.789 93.1288 308.316 95.2332C304.844 97.3377 303.108 100.389 303.108 104.388V107.702C303.108 111.911 304.581 115.12 307.527 117.33C310.579 119.434 314.735 120.486 319.996 120.486Z" fill="white" fill-opacity="0.95"/>
<path d="M382.594 129.167V47.7256H394.274V57.1955H394.905C396.168 54.0389 397.956 51.3557 400.271 49.1461C402.586 46.9364 406.006 45.8316 410.53 45.8316C415.265 45.8316 418.79 47.0416 421.105 49.4617C423.42 51.7766 424.841 54.828 425.367 58.616H425.84C427.313 54.9333 429.418 51.8818 432.154 49.4617C434.889 47.0416 438.677 45.8316 443.517 45.8316C450.146 45.8316 454.566 48.1464 456.775 52.7762C459.09 57.406 460.248 64.035 460.248 72.6631V129.167H448.568V74.715C448.568 67.7703 447.832 62.9827 446.358 60.3522C444.991 57.6164 442.413 56.2485 438.625 56.2485C435.258 56.2485 432.522 57.3534 430.417 59.563C428.313 61.6675 427.261 64.9293 427.261 69.3487V129.167H415.581V74.715C415.581 67.7703 414.845 62.9827 413.371 60.3522C412.004 57.6164 409.478 56.2485 405.795 56.2485C402.428 56.2485 399.64 57.3534 397.43 59.563C395.326 61.6675 394.274 64.9293 394.274 69.3487V129.167H382.594Z" fill="url(#paint2_linear_617_9)"/>
<path d="M382.594 129.167V47.7256H394.274V57.1955H394.905C396.168 54.0389 397.956 51.3557 400.271 49.1461C402.586 46.9364 406.006 45.8316 410.53 45.8316C415.265 45.8316 418.79 47.0416 421.105 49.4617C423.42 51.7766 424.841 54.828 425.367 58.616H425.84C427.313 54.9333 429.418 51.8818 432.154 49.4617C434.889 47.0416 438.677 45.8316 443.517 45.8316C450.146 45.8316 454.566 48.1464 456.775 52.7762C459.09 57.406 460.248 64.035 460.248 72.6631V129.167H448.568V74.715C448.568 67.7703 447.832 62.9827 446.358 60.3522C444.991 57.6164 442.413 56.2485 438.625 56.2485C435.258 56.2485 432.522 57.3534 430.417 59.563C428.313 61.6675 427.261 64.9293 427.261 69.3487V129.167H415.581V74.715C415.581 67.7703 414.845 62.9827 413.371 60.3522C412.004 57.6164 409.478 56.2485 405.795 56.2485C402.428 56.2485 399.64 57.3534 397.43 59.563C395.326 61.6675 394.274 64.9293 394.274 69.3487V129.167H382.594Z" fill="white" fill-opacity="0.95"/>
<path d="M480.862 19H519.531C530.369 19 538.629 21.6305 544.311 26.8916C550.098 32.1527 552.992 39.3078 552.992 48.3569C552.992 54.6702 551.413 59.7209 548.257 63.5088C545.205 67.1916 540.786 69.8748 534.999 71.5583V72.5053C541.838 74.1889 547.099 77.1351 550.782 81.3439C554.57 85.5528 556.464 91.3926 556.464 98.8634C556.464 108.123 553.518 115.488 547.625 120.96C541.838 126.431 533.684 129.167 523.161 129.167H480.862V19ZM515.901 112.595C521.583 112.595 525.739 111.648 528.37 109.754C531 107.86 532.316 104.388 532.316 99.3369V94.7597C532.316 89.7091 531 86.2368 528.37 84.3428C525.739 82.4488 521.583 81.5018 515.901 81.5018H503.906V112.595H515.901ZM512.902 65.7185C518.479 65.7185 522.53 64.8241 525.055 63.0353C527.581 61.1413 528.843 57.7742 528.843 52.934V48.1991C528.843 43.3589 527.581 40.0444 525.055 38.2556C522.53 36.4668 518.479 35.5724 512.902 35.5724H503.906V65.7185H512.902Z" fill="url(#paint3_linear_617_9)"/>
<path d="M480.862 19H519.531C530.369 19 538.629 21.6305 544.311 26.8916C550.098 32.1527 552.992 39.3078 552.992 48.3569C552.992 54.6702 551.413 59.7209 548.257 63.5088C545.205 67.1916 540.786 69.8748 534.999 71.5583V72.5053C541.838 74.1889 547.099 77.1351 550.782 81.3439C554.57 85.5528 556.464 91.3926 556.464 98.8634C556.464 108.123 553.518 115.488 547.625 120.96C541.838 126.431 533.684 129.167 523.161 129.167H480.862V19ZM515.901 112.595C521.583 112.595 525.739 111.648 528.37 109.754C531 107.86 532.316 104.388 532.316 99.3369V94.7597C532.316 89.7091 531 86.2368 528.37 84.3428C525.739 82.4488 521.583 81.5018 515.901 81.5018H503.906V112.595H515.901ZM512.902 65.7185C518.479 65.7185 522.53 64.8241 525.055 63.0353C527.581 61.1413 528.843 57.7742 528.843 52.934V48.1991C528.843 43.3589 527.581 40.0444 525.055 38.2556C522.53 36.4668 518.479 35.5724 512.902 35.5724H503.906V65.7185H512.902Z" fill="white" fill-opacity="0.95"/>
<path d="M610.697 131.061C604.384 131.061 598.702 130.114 593.651 128.22C588.6 126.221 584.286 123.38 580.709 119.697C577.236 116.015 574.553 111.543 572.659 106.282C570.765 101.02 569.818 95.0754 569.818 88.4464C569.818 81.8174 570.765 75.8724 572.659 70.6113C574.553 65.3502 577.236 60.8783 580.709 57.1955C584.286 53.5128 588.6 50.7244 593.651 48.8304C598.702 46.8312 604.384 45.8316 610.697 45.8316C617.01 45.8316 622.692 46.8312 627.743 48.8304C632.794 50.7244 637.055 53.5128 640.527 57.1955C644.105 60.8783 646.841 65.3502 648.735 70.6113C650.629 75.8724 651.576 81.8174 651.576 88.4464C651.576 95.0754 650.629 101.02 648.735 106.282C646.841 111.543 644.105 116.015 640.527 119.697C637.055 123.38 632.794 126.221 627.743 128.22C622.692 130.114 617.01 131.061 610.697 131.061ZM610.697 113.7C615.958 113.7 620.062 112.069 623.008 108.807C625.954 105.545 627.427 100.915 627.427 94.9176V81.9753C627.427 75.9776 625.954 71.3479 623.008 68.086C620.062 64.8241 615.958 63.1932 610.697 63.1932C605.436 63.1932 601.332 64.8241 598.386 68.086C595.44 71.3479 593.967 75.9776 593.967 81.9753V94.9176C593.967 100.915 595.44 105.545 598.386 108.807C601.332 112.069 605.436 113.7 610.697 113.7Z" fill="url(#paint4_linear_617_9)"/>
<path d="M610.697 131.061C604.384 131.061 598.702 130.114 593.651 128.22C588.6 126.221 584.286 123.38 580.709 119.697C577.236 116.015 574.553 111.543 572.659 106.282C570.765 101.02 569.818 95.0754 569.818 88.4464C569.818 81.8174 570.765 75.8724 572.659 70.6113C574.553 65.3502 577.236 60.8783 580.709 57.1955C584.286 53.5128 588.6 50.7244 593.651 48.8304C598.702 46.8312 604.384 45.8316 610.697 45.8316C617.01 45.8316 622.692 46.8312 627.743 48.8304C632.794 50.7244 637.055 53.5128 640.527 57.1955C644.105 60.8783 646.841 65.3502 648.735 70.6113C650.629 75.8724 651.576 81.8174 651.576 88.4464C651.576 95.0754 650.629 101.02 648.735 106.282C646.841 111.543 644.105 116.015 640.527 119.697C637.055 123.38 632.794 126.221 627.743 128.22C622.692 130.114 617.01 131.061 610.697 131.061ZM610.697 113.7C615.958 113.7 620.062 112.069 623.008 108.807C625.954 105.545 627.427 100.915 627.427 94.9176V81.9753C627.427 75.9776 625.954 71.3479 623.008 68.086C620.062 64.8241 615.958 63.1932 610.697 63.1932C605.436 63.1932 601.332 64.8241 598.386 68.086C595.44 71.3479 593.967 75.9776 593.967 81.9753V94.9176C593.967 100.915 595.44 105.545 598.386 108.807C601.332 112.069 605.436 113.7 610.697 113.7Z" fill="white" fill-opacity="0.95"/>
<path d="M711.648 129.167C703.23 129.167 696.97 126.958 692.866 122.538C688.762 118.119 686.711 112.49 686.711 105.65V65.8763H664.614V47.7256H678.977C682.449 47.7256 684.922 47.0416 686.395 45.6737C687.868 44.3058 688.605 41.7805 688.605 38.0978V19H710.07V47.7256H741.794V65.8763H710.07V111.017H741.794V129.167H711.648Z" fill="url(#paint5_linear_617_9)"/>
<path d="M711.648 129.167C703.23 129.167 696.97 126.958 692.866 122.538C688.762 118.119 686.711 112.49 686.711 105.65V65.8763H664.614V47.7256H678.977C682.449 47.7256 684.922 47.0416 686.395 45.6737C687.868 44.3058 688.605 41.7805 688.605 38.0978V19H710.07V47.7256H741.794V65.8763H710.07V111.017H741.794V129.167H711.648Z" fill="white" fill-opacity="0.95"/>
<path d="M799.026 131.061C789.977 131.061 782.085 129.693 775.351 126.958C768.722 124.222 763.724 120.486 760.357 115.751L773.457 103.598C776.614 107.071 780.296 109.806 784.505 111.806C788.819 113.7 793.712 114.647 799.184 114.647C803.814 114.647 807.444 113.963 810.074 112.595C812.705 111.122 814.02 108.912 814.02 105.966C814.02 103.651 813.126 102.073 811.337 101.231C809.548 100.284 807.075 99.5473 803.919 99.0212L790.819 96.9694C787.136 96.4433 783.716 95.6541 780.56 94.6019C777.403 93.4445 774.667 91.9187 772.352 90.0247C770.037 88.1308 768.196 85.8159 766.828 83.0801C765.46 80.3443 764.776 77.0298 764.776 73.1366C764.776 64.6137 768.038 57.9321 774.562 53.0919C781.086 48.2517 790.24 45.8316 802.025 45.8316C810.022 45.8316 816.808 46.9364 822.385 49.1461C828.067 51.2505 832.592 54.3019 835.959 58.3004L824.279 71.5583C821.859 68.9278 818.755 66.7181 814.967 64.9293C811.179 63.1406 806.602 62.2462 801.236 62.2462C792.187 62.2462 787.662 64.9819 787.662 70.4535C787.662 72.8736 788.556 74.5571 790.345 75.5041C792.134 76.3459 794.607 77.0298 797.763 77.556L810.706 79.6078C814.388 80.1339 817.808 80.9757 820.965 82.1331C824.121 83.1853 826.857 84.6584 829.172 86.5524C831.592 88.4464 833.486 90.7613 834.854 93.4971C836.222 96.2328 836.906 99.5473 836.906 103.441C836.906 111.964 833.591 118.698 826.962 123.643C820.439 128.589 811.126 131.061 799.026 131.061Z" fill="url(#paint6_linear_617_9)"/>
<path d="M799.026 131.061C789.977 131.061 782.085 129.693 775.351 126.958C768.722 124.222 763.724 120.486 760.357 115.751L773.457 103.598C776.614 107.071 780.296 109.806 784.505 111.806C788.819 113.7 793.712 114.647 799.184 114.647C803.814 114.647 807.444 113.963 810.074 112.595C812.705 111.122 814.02 108.912 814.02 105.966C814.02 103.651 813.126 102.073 811.337 101.231C809.548 100.284 807.075 99.5473 803.919 99.0212L790.819 96.9694C787.136 96.4433 783.716 95.6541 780.56 94.6019C777.403 93.4445 774.667 91.9187 772.352 90.0247C770.037 88.1308 768.196 85.8159 766.828 83.0801C765.46 80.3443 764.776 77.0298 764.776 73.1366C764.776 64.6137 768.038 57.9321 774.562 53.0919C781.086 48.2517 790.24 45.8316 802.025 45.8316C810.022 45.8316 816.808 46.9364 822.385 49.1461C828.067 51.2505 832.592 54.3019 835.959 58.3004L824.279 71.5583C821.859 68.9278 818.755 66.7181 814.967 64.9293C811.179 63.1406 806.602 62.2462 801.236 62.2462C792.187 62.2462 787.662 64.9819 787.662 70.4535C787.662 72.8736 788.556 74.5571 790.345 75.5041C792.134 76.3459 794.607 77.0298 797.763 77.556L810.706 79.6078C814.388 80.1339 817.808 80.9757 820.965 82.1331C824.121 83.1853 826.857 84.6584 829.172 86.5524C831.592 88.4464 833.486 90.7613 834.854 93.4971C836.222 96.2328 836.906 99.5473 836.906 103.441C836.906 111.964 833.591 118.698 826.962 123.643C820.439 128.589 811.126 131.061 799.026 131.061Z" fill="white" fill-opacity="0.95"/>
<path d="M85.2011 112.244C85.201 109.15 84.6386 106.431 83.514 104.086C82.3891 101.742 81.03 99.3039 79.4367 96.7721L70.8603 82.0031L62.7058 94.5216C61.0186 97.0534 59.6595 99.1164 58.6285 100.71C57.6911 102.305 56.9413 103.711 56.379 104.93C55.9102 106.149 55.6291 107.321 55.5354 108.447C55.4416 109.478 55.3947 110.744 55.3948 112.244C55.3947 113.838 55.6291 115.48 56.0978 117.167C56.6601 118.762 57.5037 120.262 58.6285 121.668C59.7532 123.075 61.2529 124.247 63.1276 125.185C65.0958 126.029 67.486 126.451 70.298 126.451C73.1098 126.451 75.4531 125.982 77.3277 125.044C79.2023 124.106 80.702 122.934 81.8268 121.528C83.0452 120.121 83.8888 118.621 84.3575 117.027C84.9198 115.339 85.201 113.745 85.2011 112.244ZM151 33.7577C151 37.1336 150.953 39.7592 150.859 41.6345C150.859 43.4162 150.719 45.0572 150.438 46.5575H143.83C143.829 42.2441 143.455 38.7277 142.705 36.0082C141.955 33.1952 140.877 30.9915 139.471 29.3973C138.065 27.7095 136.378 26.5374 134.41 25.8809C132.441 25.2246 130.285 24.8964 127.942 24.8963C123.818 24.8964 120.069 25.5059 116.695 26.7248C113.414 27.944 110.274 29.8194 107.275 32.3511C104.275 34.7893 101.323 37.8837 98.4171 41.6345C95.5114 45.2917 92.4183 49.652 89.1378 54.7156L83.0922 63.7177L93.0745 81.1592C96.5424 87.1606 99.3075 92.4586 101.37 97.0534C103.432 101.554 104.463 105.774 104.463 109.713C104.463 113.557 103.807 117.167 102.494 120.543C101.276 123.825 99.4012 126.685 96.8706 129.123C94.4335 131.561 91.3404 133.484 87.5912 134.89C83.9357 136.297 79.6709 137 74.797 137C70.4853 137 66.5018 136.391 62.8464 135.171C59.2845 133.952 56.1914 132.311 53.567 130.248C51.0363 128.092 49.0211 125.607 47.5214 122.794C46.1154 119.981 45.4124 117.027 45.4125 113.932C45.4124 107.931 48.3649 100.335 54.27 91.1458L65.6583 73.7043L48.6462 45.4322C46.1154 41.1188 43.7253 37.6024 41.4758 34.883C39.3199 32.1637 37.211 30.1007 35.149 28.694C33.1806 27.1938 31.2123 26.2092 29.244 25.7402C27.2756 25.1777 25.2135 24.8964 23.0577 24.8963C20.6207 24.8964 18.418 25.2246 16.4497 25.8809C14.5751 26.5374 12.9348 27.7095 11.5289 29.3973C10.1229 30.9915 9.04499 33.1952 8.29516 36.0082C7.54531 38.7277 7.17038 42.2441 7.17039 46.5575H0.562387C0.281191 45.0572 0.0937296 43.4162 2.99938e-06 41.6345C-9.99793e-07 39.7592 -9.99793e-07 37.1336 2.99938e-06 33.7577C-9.99793e-07 23.2554 2.0152 15.0035 6.04563 9.00205C10.1698 3.00082 15.9811 0.000140032 23.4795 0C27.135 0.000140032 30.8373 0.797187 34.5866 2.39117C38.3358 3.89164 41.9444 6.0015 45.4125 8.72074C48.9742 11.3465 52.3016 14.4878 55.3948 18.1448C58.4878 21.802 61.2529 25.7404 63.6899 29.96L78.0307 54.9969L91.1061 35.1643C93.8242 31.0384 96.683 26.9125 99.6825 22.7865C102.682 18.5669 105.728 14.7691 108.821 11.3932C111.914 8.01757 115.007 5.29821 118.101 3.23511C121.287 1.0785 124.38 0.000140032 127.38 0C134.878 0.000140032 140.689 3.00082 144.814 9.00205C148.938 15.0035 151 23.2554 151 33.7577Z" fill="url(#paint7_linear_617_9)"/>
<defs>
<linearGradient id="paint0_linear_617_9" x1="0.641614" y1="-22.8848" x2="836.906" y2="170.874" gradientUnits="userSpaceOnUse">
<stop stop-color="#3F8A62"/>
<stop offset="1" stop-color="#5CC688"/>
</linearGradient>
<linearGradient id="paint1_linear_617_9" x1="0.641614" y1="-22.8848" x2="836.906" y2="170.874" gradientUnits="userSpaceOnUse">
<stop stop-color="#3F8A62"/>
<stop offset="1" stop-color="#5CC688"/>
</linearGradient>
<linearGradient id="paint2_linear_617_9" x1="0.641614" y1="-22.8848" x2="836.906" y2="170.874" gradientUnits="userSpaceOnUse">
<stop stop-color="#3F8A62"/>
<stop offset="1" stop-color="#5CC688"/>
</linearGradient>
<linearGradient id="paint3_linear_617_9" x1="0.641614" y1="-22.8848" x2="836.906" y2="170.874" gradientUnits="userSpaceOnUse">
<stop stop-color="#3F8A62"/>
<stop offset="1" stop-color="#5CC688"/>
</linearGradient>
<linearGradient id="paint4_linear_617_9" x1="0.641614" y1="-22.8848" x2="836.906" y2="170.874" gradientUnits="userSpaceOnUse">
<stop stop-color="#3F8A62"/>
<stop offset="1" stop-color="#5CC688"/>
</linearGradient>
<linearGradient id="paint5_linear_617_9" x1="0.641614" y1="-22.8848" x2="836.906" y2="170.874" gradientUnits="userSpaceOnUse">
<stop stop-color="#3F8A62"/>
<stop offset="1" stop-color="#5CC688"/>
</linearGradient>
<linearGradient id="paint6_linear_617_9" x1="0.641614" y1="-22.8848" x2="836.906" y2="170.874" gradientUnits="userSpaceOnUse">
<stop stop-color="#3F8A62"/>
<stop offset="1" stop-color="#5CC688"/>
</linearGradient>
<linearGradient id="paint7_linear_617_9" x1="4.4313e-07" y1="-24.0732" x2="158.828" y2="-17.43" gradientUnits="userSpaceOnUse">
<stop stop-color="#3F8A62"/>
<stop offset="1" stop-color="#5CC688"/>
</linearGradient>
</defs>
</svg>
