<svg width="858" height="157" viewBox="0 0 858 157" fill="none" xmlns="http://www.w3.org/2000/svg">
<g filter="url(#filter0_d_602_4)">
<path d="M222.463 138H209.205V27.8327H249.294C259.501 27.8327 267.287 30.6211 272.654 36.1979C278.02 41.7746 280.703 49.561 280.703 59.5571C280.703 68.501 278.388 75.6561 273.759 81.0224C269.129 86.3887 262.395 89.4927 253.556 90.3345L281.65 138H266.814L239.982 90.9658H222.463V138ZM248.979 79.7597C254.556 79.7597 258.87 78.3918 261.921 75.6561C265.078 72.8151 266.656 68.8166 266.656 63.6608V55.4535C266.656 50.2976 265.078 46.3518 261.921 43.616C258.87 40.775 254.556 39.3545 248.979 39.3545H222.463V79.7597H248.979Z" fill="url(#paint0_linear_602_4)" fill-opacity="0.75"/>
<path d="M367.765 138C362.82 138 359.295 136.737 357.19 134.212C355.086 131.687 353.771 128.53 353.245 124.742H352.455C350.667 129.477 347.773 133.212 343.775 135.948C339.881 138.579 334.62 139.894 327.991 139.894C319.468 139.894 312.682 137.684 307.631 133.265C302.58 128.846 300.055 122.795 300.055 115.114C300.055 107.538 302.791 101.698 308.262 97.5948C313.839 93.4912 322.783 91.4393 335.094 91.4393H352.455V83.3899C352.455 77.3922 350.772 72.9203 347.405 69.9741C344.038 66.9226 339.25 65.3969 333.042 65.3969C327.57 65.3969 323.099 66.5018 319.626 68.7114C316.154 70.8158 313.366 73.7095 311.261 77.3922L302.738 71.0789C303.79 68.9745 305.211 66.9226 307 64.9234C308.788 62.9242 310.998 61.1881 313.629 59.7149C316.259 58.1366 319.258 56.9266 322.625 56.0848C325.992 55.1378 329.728 54.6643 333.831 54.6643C343.406 54.6643 350.982 57.0844 356.559 61.9246C362.241 66.7648 365.082 73.499 365.082 82.1272V126.952H376.446V138H367.765ZM330.201 129.319C333.463 129.319 336.409 128.951 339.04 128.214C341.775 127.373 344.143 126.32 346.142 125.058C348.141 123.69 349.667 122.112 350.719 120.323C351.877 118.429 352.455 116.43 352.455 114.325V100.909H335.094C327.518 100.909 321.994 101.962 318.521 104.066C315.049 106.17 313.313 109.222 313.313 113.22V116.535C313.313 120.744 314.786 123.953 317.732 126.163C320.784 128.267 324.94 129.319 330.201 129.319Z" fill="url(#paint1_linear_602_4)" fill-opacity="0.75"/>
<path d="M392.799 138V56.5583H404.479V66.0283H405.11C406.373 62.8716 408.161 60.1884 410.476 57.9788C412.791 55.7691 416.211 54.6643 420.735 54.6643C425.47 54.6643 428.995 55.8744 431.31 58.2945C433.625 60.6093 435.046 63.6608 435.572 67.4487H436.045C437.518 63.766 439.623 60.7146 442.358 58.2945C445.094 55.8744 448.882 54.6643 453.722 54.6643C460.351 54.6643 464.771 56.9792 466.98 61.6089C469.295 66.2387 470.453 72.8677 470.453 81.4959V138H458.773V83.5477C458.773 76.6031 458.037 71.8155 456.563 69.1849C455.196 66.4491 452.618 65.0813 448.83 65.0813C445.463 65.0813 442.727 66.1861 440.622 68.3957C438.518 70.5002 437.466 73.7621 437.466 78.1814V138H425.786V83.5477C425.786 76.6031 425.049 71.8155 423.576 69.1849C422.209 66.4491 419.683 65.0813 416 65.0813C412.633 65.0813 409.845 66.1861 407.635 68.3957C405.531 70.5002 404.479 73.7621 404.479 78.1814V138H392.799Z" fill="url(#paint2_linear_602_4)" fill-opacity="0.75"/>
<path d="M491.067 27.8327H529.736C540.574 27.8327 548.834 30.4633 554.516 35.7244C560.303 40.9855 563.197 48.1405 563.197 57.1896C563.197 63.5029 561.618 68.5536 558.462 72.3416C555.41 76.0243 550.991 78.7075 545.204 80.391V81.338C552.043 83.0216 557.304 85.9678 560.987 90.1767C564.775 94.3855 566.669 100.225 566.669 107.696C566.669 116.956 563.723 124.321 557.83 129.793C552.043 135.264 543.889 138 533.366 138H491.067V27.8327ZM526.106 121.428C531.788 121.428 535.944 120.481 538.575 118.587C541.205 116.693 542.521 113.22 542.521 108.17V103.592C542.521 98.5418 541.205 95.0695 538.575 93.1755C535.944 91.2815 531.788 90.3345 526.106 90.3345H514.111V121.428H526.106ZM523.107 74.5512C528.684 74.5512 532.735 73.6568 535.26 71.8681C537.786 69.9741 539.048 66.607 539.048 61.7668V57.0318C539.048 52.1916 537.786 48.8771 535.26 47.0883C532.735 45.2995 528.684 44.4052 523.107 44.4052H514.111V74.5512H523.107Z" fill="url(#paint3_linear_602_4)" fill-opacity="0.75"/>
<path d="M620.902 139.894C614.589 139.894 608.907 138.947 603.856 137.053C598.805 135.054 594.491 132.213 590.914 128.53C587.441 124.847 584.758 120.375 582.864 115.114C580.97 109.853 580.023 103.908 580.023 97.2791C580.023 90.6502 580.97 84.7051 582.864 79.444C584.758 74.1829 587.441 69.711 590.914 66.0283C594.491 62.3455 598.805 59.5571 603.856 57.6631C608.907 55.6639 614.589 54.6643 620.902 54.6643C627.215 54.6643 632.897 55.6639 637.948 57.6631C642.998 59.5571 647.26 62.3455 650.732 66.0283C654.31 69.711 657.046 74.1829 658.94 79.444C660.834 84.7051 661.781 90.6502 661.781 97.2791C661.781 103.908 660.834 109.853 658.94 115.114C657.046 120.375 654.31 124.847 650.732 128.53C647.26 132.213 642.998 135.054 637.948 137.053C632.897 138.947 627.215 139.894 620.902 139.894ZM620.902 122.532C626.163 122.532 630.267 120.901 633.213 117.64C636.159 114.378 637.632 109.748 637.632 103.75V90.808C637.632 84.8104 636.159 80.1806 633.213 76.9187C630.267 73.6568 626.163 72.0259 620.902 72.0259C615.641 72.0259 611.537 73.6568 608.591 76.9187C605.645 80.1806 604.172 84.8104 604.172 90.808V103.75C604.172 109.748 605.645 114.378 608.591 117.64C611.537 120.901 615.641 122.532 620.902 122.532Z" fill="url(#paint4_linear_602_4)" fill-opacity="0.75"/>
<path d="M721.853 138C713.435 138 707.175 135.79 703.071 131.371C698.967 126.952 696.916 121.322 696.916 114.483V74.7091H674.819V56.5583H689.182C692.654 56.5583 695.127 55.8743 696.6 54.5065C698.073 53.1386 698.81 50.6133 698.81 46.9305V27.8327H720.275V56.5583H751.999V74.7091H720.275V119.849H751.999V138H721.853Z" fill="url(#paint5_linear_602_4)" fill-opacity="0.75"/>
<path d="M809.231 139.894C800.182 139.894 792.29 138.526 785.556 135.79C778.927 133.055 773.929 129.319 770.562 124.584L783.662 112.431C786.819 115.903 790.501 118.639 794.71 120.638C799.024 122.532 803.917 123.479 809.389 123.479C814.018 123.479 817.649 122.795 820.279 121.428C822.91 119.954 824.225 117.745 824.225 114.799C824.225 112.484 823.331 110.905 821.542 110.064C819.753 109.117 817.28 108.38 814.124 107.854L801.024 105.802C797.341 105.276 793.921 104.487 790.764 103.435C787.608 102.277 784.872 100.751 782.557 98.8575C780.242 96.9635 778.401 94.6486 777.033 91.9128C775.665 89.1771 774.981 85.8626 774.981 81.9694C774.981 73.4464 778.243 66.7648 784.767 61.9246C791.291 57.0844 800.445 54.6643 812.23 54.6643C820.227 54.6643 827.013 55.7691 832.59 57.9788C838.272 60.0832 842.797 63.1347 846.164 67.1331L834.484 80.391C832.064 77.7605 828.96 75.5508 825.172 73.7621C821.384 71.9733 816.807 71.0789 811.441 71.0789C802.391 71.0789 797.867 73.8147 797.867 79.2862C797.867 81.7063 798.761 83.3899 800.55 84.3369C802.339 85.1786 804.812 85.8626 807.968 86.3887L820.911 88.4405C824.593 88.9666 828.013 89.8084 831.17 90.9658C834.326 92.0181 837.062 93.4912 839.377 95.3852C841.797 97.2791 843.691 99.594 845.059 102.33C846.427 105.066 847.111 108.38 847.111 112.273C847.111 120.796 843.796 127.53 837.167 132.476C830.644 137.421 821.331 139.894 809.231 139.894Z" fill="url(#paint6_linear_602_4)" fill-opacity="0.75"/>
<path d="M95.0726 121.606C95.0725 118.556 94.5176 115.877 93.4078 113.567C92.2979 111.257 90.9568 108.854 89.3845 106.359L80.9218 91.806L72.8752 104.142C71.2104 106.637 69.8693 108.669 68.852 110.24C67.927 111.811 67.1871 113.197 66.6322 114.398C66.1697 115.6 65.8922 116.755 65.7998 117.863C65.7073 118.88 65.661 120.127 65.6611 121.606C65.661 123.177 65.8922 124.794 66.3548 126.457C66.9096 128.028 67.742 129.506 68.852 130.892C69.9618 132.278 71.4416 133.433 73.2914 134.357C75.2336 135.189 77.5921 135.605 80.3669 135.605C83.1414 135.605 85.4537 135.143 87.3035 134.219C89.1532 133.295 90.6331 132.14 91.743 130.754C92.9453 129.368 93.7777 127.889 94.2402 126.318C94.7951 124.655 95.0725 123.084 95.0726 121.606ZM160 44.2649C160 47.5915 159.954 50.1787 159.861 52.0267C159.861 53.7824 159.722 55.3995 159.445 56.8778H152.925C152.924 52.6274 152.554 49.1623 151.815 46.4826C151.075 43.7106 150.011 41.5391 148.624 39.9682C147.236 38.305 145.572 37.15 143.629 36.5031C141.687 35.8564 139.56 35.533 137.248 35.5329C133.178 35.533 129.478 36.1336 126.149 37.3347C122.912 38.536 119.813 40.3841 116.854 42.8789C113.894 45.2814 110.981 48.3307 108.114 52.0267C105.246 55.6305 102.194 59.9272 98.9572 64.9168L92.9916 73.7875L102.842 90.9744C106.264 96.8882 108.992 102.109 111.027 106.637C113.062 111.072 114.079 115.23 114.079 119.111C114.079 122.899 113.432 126.457 112.137 129.783C110.934 133.017 109.085 135.836 106.588 138.238C104.183 140.641 101.131 142.535 97.4311 143.921C93.8239 145.307 89.6157 146 84.8063 146C80.5518 146 76.621 145.399 73.014 144.198C69.4993 142.997 66.4472 141.38 63.8575 139.347C61.3603 137.222 59.3718 134.773 57.892 132.001C56.5046 129.229 55.8109 126.318 55.811 123.269C55.8109 117.355 58.7244 109.871 64.5512 100.815L75.7886 83.6283L59.0019 55.769C56.5046 51.5186 54.1461 48.0535 51.9265 45.3737C49.7992 42.6941 47.7182 40.6613 45.6834 39.2752C43.7411 37.7968 41.7988 36.8266 39.8566 36.3645C37.9143 35.8102 35.8796 35.533 33.7523 35.5329C31.3476 35.533 29.1741 35.8564 27.2318 36.5031C25.382 37.15 23.7635 38.305 22.3762 39.9682C20.9888 41.5391 19.9252 43.7106 19.1853 46.4826C18.4454 49.1623 18.0754 52.6274 18.0754 56.8778H11.5549C11.2775 55.3995 11.0925 53.7824 11 52.0267C11 50.1787 11 47.5915 11 44.2649C11 33.9159 12.9885 25.7845 16.9656 19.8706C21.0351 13.957 26.7694 11.0001 34.1685 11C37.7756 11.0001 41.4289 11.7855 45.1285 13.3563C48.828 14.8348 52.3888 16.9139 55.811 19.5934C59.3255 22.1808 62.6089 25.2763 65.6611 28.8799C68.7132 32.4837 71.4416 36.3646 73.8464 40.5226L87.9972 65.194L100.899 45.6509C103.582 41.5853 106.402 37.5196 109.362 33.4538C112.322 29.2958 115.328 25.5535 118.38 22.2269C121.432 18.9005 124.484 16.2209 127.536 14.1879C130.681 12.0628 133.733 11.0001 136.693 11C144.092 11.0001 149.826 13.957 153.896 19.8706C157.965 25.7845 160 33.9159 160 44.2649Z" fill="url(#paint7_linear_602_4)" fill-opacity="0.75"/>
</g>
<defs>
<filter id="filter0_d_602_4" x="0.723642" y="0.723642" width="856.664" height="155.553" filterUnits="userSpaceOnUse" color-interpolation-filters="sRGB">
<feFlood flood-opacity="0" result="BackgroundImageFix"/>
<feColorMatrix in="SourceAlpha" type="matrix" values="0 0 0 0 0 0 0 0 0 0 0 0 0 0 0 0 0 0 127 0" result="hardAlpha"/>
<feOffset/>
<feGaussianBlur stdDeviation="5.13818"/>
<feColorMatrix type="matrix" values="0 0 0 0 0 0 0 0 0 0 0 0 0 0 0 0 0 0 0.5 0"/>
<feBlend mode="normal" in2="BackgroundImageFix" result="effect1_dropShadow_602_4"/>
<feBlend mode="normal" in="SourceGraphic" in2="effect1_dropShadow_602_4" result="shape"/>
</filter>
<linearGradient id="paint0_linear_602_4" x1="827.754" y1="42.4558" x2="310.44" y2="356.148" gradientUnits="userSpaceOnUse">
<stop stop-opacity="0.15"/>
<stop offset="1" stop-opacity="0.68"/>
</linearGradient>
<linearGradient id="paint1_linear_602_4" x1="827.754" y1="42.4558" x2="310.44" y2="356.148" gradientUnits="userSpaceOnUse">
<stop stop-opacity="0.15"/>
<stop offset="1" stop-opacity="0.68"/>
</linearGradient>
<linearGradient id="paint2_linear_602_4" x1="827.754" y1="42.4558" x2="310.44" y2="356.148" gradientUnits="userSpaceOnUse">
<stop stop-opacity="0.15"/>
<stop offset="1" stop-opacity="0.68"/>
</linearGradient>
<linearGradient id="paint3_linear_602_4" x1="827.754" y1="42.4558" x2="310.44" y2="356.148" gradientUnits="userSpaceOnUse">
<stop stop-opacity="0.15"/>
<stop offset="1" stop-opacity="0.68"/>
</linearGradient>
<linearGradient id="paint4_linear_602_4" x1="827.754" y1="42.4558" x2="310.44" y2="356.148" gradientUnits="userSpaceOnUse">
<stop stop-opacity="0.15"/>
<stop offset="1" stop-opacity="0.68"/>
</linearGradient>
<linearGradient id="paint5_linear_602_4" x1="827.754" y1="42.4558" x2="310.44" y2="356.148" gradientUnits="userSpaceOnUse">
<stop stop-opacity="0.15"/>
<stop offset="1" stop-opacity="0.68"/>
</linearGradient>
<linearGradient id="paint6_linear_602_4" x1="827.754" y1="42.4558" x2="310.44" y2="356.148" gradientUnits="userSpaceOnUse">
<stop stop-opacity="0.15"/>
<stop offset="1" stop-opacity="0.68"/>
</linearGradient>
<linearGradient id="paint7_linear_602_4" x1="11" y1="-12.7218" x2="138.754" y2="8.98326" gradientUnits="userSpaceOnUse">
<stop stop-opacity="0.15"/>
<stop offset="1" stop-opacity="0.68"/>
</linearGradient>
</defs>
</svg>
