<svg width="862" height="162" viewBox="0 0 862 162" fill="none" xmlns="http://www.w3.org/2000/svg">
<g filter="url(#filter0_d_118_19)">
<path d="M224.556 140.824H211.298V30.6566H251.387C261.594 30.6566 269.38 33.445 274.746 39.0217C280.113 44.5985 282.796 52.3849 282.796 62.381C282.796 71.3248 280.481 78.4799 275.851 83.8462C271.222 89.2125 264.487 92.3166 255.649 93.1584L283.743 140.824H268.907L242.075 93.7897H224.556V140.824ZM251.072 82.5836C256.648 82.5836 260.962 81.2157 264.014 78.4799C267.171 75.6389 268.749 71.6405 268.749 66.4846V58.2773C268.749 53.1214 267.171 49.1756 264.014 46.4399C260.962 43.5989 256.648 42.1784 251.072 42.1784H224.556V82.5836H251.072Z" fill="url(#paint0_linear_118_19)" fill-opacity="0.75"/>
<path d="M369.858 140.824C364.913 140.824 361.388 139.561 359.283 137.036C357.179 134.511 355.864 131.354 355.337 127.566H354.548C352.759 132.301 349.866 136.036 345.867 138.772C341.974 141.403 336.713 142.718 330.084 142.718C321.561 142.718 314.774 140.508 309.724 136.089C304.673 131.67 302.148 125.619 302.148 117.938C302.148 110.362 304.884 104.522 310.355 100.419C315.932 96.315 324.876 94.2632 337.187 94.2632H354.548V86.2137C354.548 80.2161 352.865 75.7441 349.498 72.7979C346.13 69.7465 341.343 68.2208 335.135 68.2208C329.663 68.2208 325.191 69.3256 321.719 71.5353C318.247 73.6397 315.458 76.5333 313.354 80.2161L304.831 73.9028C305.883 71.7983 307.304 69.7465 309.092 67.7473C310.881 65.7481 313.091 64.0119 315.721 62.5388C318.352 60.9605 321.351 59.7504 324.718 58.9086C328.085 57.9616 331.82 57.4882 335.924 57.4882C345.499 57.4882 353.075 59.9083 358.652 64.7485C364.334 69.5887 367.175 76.3229 367.175 84.9511V129.776H378.539V140.824H369.858ZM332.294 132.143C335.556 132.143 338.502 131.775 341.132 131.038C343.868 130.196 346.236 129.144 348.235 127.882C350.234 126.514 351.76 124.935 352.812 123.147C353.97 121.253 354.548 119.253 354.548 117.149V103.733H337.187C329.611 103.733 324.086 104.785 320.614 106.89C317.142 108.994 315.406 112.046 315.406 116.044V119.359C315.406 123.567 316.879 126.777 319.825 128.986C322.876 131.091 327.033 132.143 332.294 132.143Z" fill="url(#paint1_linear_118_19)" fill-opacity="0.75"/>
<path d="M394.892 140.824V59.3821H406.571V68.8521H407.203C408.465 65.6955 410.254 63.0123 412.569 60.8026C414.884 58.593 418.304 57.4882 422.828 57.4882C427.563 57.4882 431.088 58.6982 433.403 61.1183C435.718 63.4332 437.138 66.4846 437.664 70.2726H438.138C439.611 66.5898 441.715 63.5384 444.451 61.1183C447.187 58.6982 450.975 57.4882 455.815 57.4882C462.444 57.4882 466.863 59.803 469.073 64.4328C471.388 69.0625 472.545 75.6915 472.545 84.3197V140.824H460.866V86.3715C460.866 79.4269 460.129 74.6393 458.656 72.0088C457.288 69.273 454.71 67.9051 450.922 67.9051C447.555 67.9051 444.82 69.0099 442.715 71.2196C440.611 73.324 439.558 76.5859 439.558 81.0052V140.824H427.879V86.3715C427.879 79.4269 427.142 74.6393 425.669 72.0088C424.301 69.273 421.776 67.9051 418.093 67.9051C414.726 67.9051 411.938 69.0099 409.728 71.2196C407.624 73.324 406.571 76.5859 406.571 81.0052V140.824H394.892Z" fill="url(#paint2_linear_118_19)" fill-opacity="0.75"/>
<path d="M493.16 30.6566H531.829C542.667 30.6566 550.927 33.2871 556.609 38.5482C562.396 43.8093 565.289 50.9644 565.289 60.0135C565.289 66.3268 563.711 71.3774 560.555 75.1654C557.503 78.8482 553.084 81.5313 547.297 83.2149V84.1619C554.136 85.8454 559.397 88.7916 563.08 93.0005C566.868 97.2094 568.762 103.049 568.762 110.52C568.762 119.779 565.816 127.145 559.923 132.617C554.136 138.088 545.981 140.824 535.459 140.824H493.16V30.6566ZM528.199 124.251C533.881 124.251 538.037 123.304 540.668 121.41C543.298 119.516 544.613 116.044 544.613 110.993V106.416C544.613 101.366 543.298 97.8933 540.668 95.9993C538.037 94.1053 533.881 93.1584 528.199 93.1584H516.204V124.251H528.199ZM525.2 77.3751C530.777 77.3751 534.828 76.4807 537.353 74.6919C539.878 72.7979 541.141 69.4308 541.141 64.5906V59.8556C541.141 55.0154 539.878 51.7009 537.353 49.9122C534.828 48.1234 530.777 47.229 525.2 47.229H516.204V77.3751H525.2Z" fill="url(#paint3_linear_118_19)" fill-opacity="0.75"/>
<path d="M622.995 142.718C616.681 142.718 610.999 141.771 605.949 139.877C600.898 137.878 596.584 135.037 593.006 131.354C589.534 127.671 586.851 123.199 584.957 117.938C583.063 112.677 582.116 106.732 582.116 100.103C582.116 93.474 583.063 87.529 584.957 82.2679C586.851 77.0068 589.534 72.5349 593.006 68.8521C596.584 65.1693 600.898 62.381 605.949 60.487C610.999 58.4878 616.681 57.4882 622.995 57.4882C629.308 57.4882 634.99 58.4878 640.041 60.487C645.091 62.381 649.353 65.1693 652.825 68.8521C656.403 72.5349 659.138 77.0068 661.032 82.2679C662.926 87.529 663.873 93.474 663.873 100.103C663.873 106.732 662.926 112.677 661.032 117.938C659.138 123.199 656.403 127.671 652.825 131.354C649.353 135.037 645.091 137.878 640.041 139.877C634.99 141.771 629.308 142.718 622.995 142.718ZM622.995 125.356C628.256 125.356 632.359 123.725 635.306 120.463C638.252 117.202 639.725 112.572 639.725 106.574V93.6319C639.725 87.6342 638.252 83.0044 635.306 79.7426C632.359 76.4807 628.256 74.8498 622.995 74.8498C617.734 74.8498 613.63 76.4807 610.684 79.7426C607.737 83.0044 606.264 87.6342 606.264 93.6319V106.574C606.264 112.572 607.737 117.202 610.684 120.463C613.63 123.725 617.734 125.356 622.995 125.356Z" fill="url(#paint4_linear_118_19)" fill-opacity="0.75"/>
<path d="M723.946 140.824C715.528 140.824 709.268 138.614 705.164 134.195C701.06 129.776 699.008 124.146 699.008 117.307V77.5329H676.912V59.3821H691.275C694.747 59.3821 697.22 58.6982 698.693 57.3303C700.166 55.9624 700.902 53.4371 700.902 49.7543V30.6566H722.368V59.3821H754.092V77.5329H722.368V122.673H754.092V140.824H723.946Z" fill="url(#paint5_linear_118_19)" fill-opacity="0.75"/>
<path d="M811.324 142.718C802.275 142.718 794.383 141.35 787.649 138.614C781.02 135.878 776.022 132.143 772.655 127.408L785.755 115.255C788.911 118.727 792.594 121.463 796.803 123.462C801.117 125.356 806.01 126.303 811.482 126.303C816.111 126.303 819.741 125.619 822.372 124.251C825.003 122.778 826.318 120.569 826.318 117.622C826.318 115.308 825.423 113.729 823.635 112.887C821.846 111.94 819.373 111.204 816.216 110.678L803.116 108.626C799.434 108.1 796.014 107.311 792.857 106.258C789.701 105.101 786.965 103.575 784.65 101.681C782.335 99.7873 780.494 97.4725 779.126 94.7367C777.758 92.0009 777.074 88.6864 777.074 84.7932C777.074 76.2703 780.336 69.5887 786.86 64.7485C793.383 59.9083 802.538 57.4882 814.323 57.4882C822.319 57.4882 829.106 58.593 834.683 60.8026C840.365 62.9071 844.889 65.9585 848.257 69.9569L836.577 83.2149C834.157 80.5843 831.053 78.3747 827.265 76.5859C823.477 74.7971 818.9 73.9028 813.533 73.9028C804.484 73.9028 799.96 76.6385 799.96 82.1101C799.96 84.5302 800.854 86.2137 802.643 87.1607C804.432 88.0025 806.904 88.6864 810.061 89.2125L823.003 91.2644C826.686 91.7905 830.106 92.6322 833.262 93.7897C836.419 94.8419 839.155 96.315 841.47 98.209C843.89 100.103 845.784 102.418 847.152 105.154C848.52 107.889 849.204 111.204 849.204 115.097C849.204 123.62 845.889 130.354 839.26 135.3C832.736 140.245 823.424 142.718 811.324 142.718Z" fill="url(#paint6_linear_118_19)" fill-opacity="0.75"/>
<path d="M98.1582 125.058C98.1581 121.964 97.5956 119.246 96.4707 116.902C95.3456 114.558 93.9862 112.121 92.3926 109.589L83.8145 94.8239L75.6582 107.339C73.9706 109.871 72.6113 111.933 71.5801 113.527C70.6425 115.121 69.8925 116.527 69.3301 117.746C68.8613 118.964 68.58 120.136 68.4863 121.261C68.3925 122.293 68.3456 123.558 68.3457 125.058C68.3456 126.652 68.58 128.293 69.0488 129.98C69.6113 131.574 70.455 133.074 71.5801 134.48C72.705 135.886 74.205 137.058 76.0801 137.996C78.0488 138.839 80.4394 139.261 83.252 139.261C86.0644 139.261 88.4081 138.793 90.2832 137.855C92.1581 136.918 93.6581 135.746 94.7832 134.339C96.0019 132.933 96.8456 131.433 97.3145 129.839C97.8769 128.152 98.1581 126.558 98.1582 125.058ZM163.971 46.5895C163.971 49.9646 163.924 52.5896 163.83 54.4645C163.83 56.2458 163.689 57.8864 163.408 59.3864H156.799C156.799 55.0739 156.424 51.5583 155.674 48.8395C154.924 46.0271 153.846 43.824 152.439 42.2301C151.033 40.5427 149.346 39.3708 147.377 38.7145C145.408 38.0583 143.252 37.7302 140.908 37.7301C136.783 37.7302 133.033 38.3396 129.658 39.5582C126.377 40.7771 123.236 42.6521 120.236 45.1832C117.236 47.6208 114.283 50.7146 111.377 54.4645C108.471 58.1208 105.377 62.4802 102.096 67.5426L96.0488 76.5426L106.033 93.9801C109.502 99.9802 112.267 105.277 114.33 109.871C116.392 114.371 117.424 118.589 117.424 122.527C117.424 126.371 116.767 129.98 115.455 133.355C114.236 136.636 112.361 139.496 109.83 141.933C107.392 144.371 104.299 146.293 100.549 147.699C96.8925 149.105 92.6269 149.808 87.752 149.808C83.4394 149.808 79.455 149.199 75.7988 147.98C72.2363 146.761 69.1425 145.121 66.5176 143.058C63.9863 140.902 61.9707 138.418 60.4707 135.605C59.0644 132.793 58.3613 129.839 58.3613 126.746C58.3613 120.746 61.3144 113.152 67.2207 103.964L78.6113 86.527L61.5957 58.2614C59.0644 53.9489 56.6738 50.4333 54.4238 47.7145C52.2675 44.9958 50.1582 42.9333 48.0957 41.527C46.1269 40.0271 44.1582 39.0427 42.1895 38.5739C40.2207 38.0115 38.1582 37.7302 36.002 37.7301C33.5644 37.7302 31.3613 38.0583 29.3926 38.7145C27.5176 39.3708 25.8769 40.5427 24.4707 42.2301C23.0644 43.824 21.9863 46.0271 21.2363 48.8395C20.4863 51.5583 20.1113 55.0739 20.1113 59.3864H13.502C13.2207 57.8864 13.0332 56.2458 12.9395 54.4645C12.9395 52.5896 12.9395 49.9646 12.9395 46.5895C12.9395 36.0896 14.9551 27.8396 18.9863 21.8395C23.1113 15.8396 28.9238 12.8396 36.4238 12.8395C40.08 12.8396 43.7832 13.6365 47.5332 15.2301C51.2832 16.7302 54.8925 18.8396 58.3613 21.5582C61.9238 24.1833 65.2519 27.324 68.3457 30.9801C71.4394 34.6365 74.205 38.574 76.6426 42.7926L90.9863 67.8239L104.064 47.9957C106.783 43.8708 109.642 39.7458 112.643 35.6207C115.642 31.4021 118.689 27.6052 121.783 24.2301C124.877 20.8552 127.971 18.1365 131.064 16.0739C134.252 13.9177 137.346 12.8396 140.346 12.8395C147.846 12.8396 153.658 15.8396 157.783 21.8395C161.908 27.8396 163.971 36.0896 163.971 46.5895Z" fill="url(#paint7_linear_118_19)" fill-opacity="0.75"/>
</g>
<defs>
<filter id="filter0_d_118_19" x="0.939453" y="0.839478" width="860.264" height="160.969" filterUnits="userSpaceOnUse" color-interpolation-filters="sRGB">
<feFlood flood-opacity="0" result="BackgroundImageFix"/>
<feColorMatrix in="SourceAlpha" type="matrix" values="0 0 0 0 0 0 0 0 0 0 0 0 0 0 0 0 0 0 127 0" result="hardAlpha"/>
<feOffset/>
<feGaussianBlur stdDeviation="6"/>
<feColorMatrix type="matrix" values="0 0 0 0 0.8 0 0 0 0 0 0 0 0 0 1 0 0 0 0.5 0"/>
<feBlend mode="normal" in2="BackgroundImageFix" result="effect1_dropShadow_118_19"/>
<feBlend mode="normal" in="SourceGraphic" in2="effect1_dropShadow_118_19" result="shape"/>
</filter>
<linearGradient id="paint0_linear_118_19" x1="12.9395" y1="-11.2283" x2="849.204" y2="182.531" gradientUnits="userSpaceOnUse">
<stop stop-color="#8F00FF" stop-opacity="0.15"/>
<stop offset="1" stop-color="#0066FF" stop-opacity="0.68"/>
</linearGradient>
<linearGradient id="paint1_linear_118_19" x1="12.9395" y1="-11.2283" x2="849.204" y2="182.531" gradientUnits="userSpaceOnUse">
<stop stop-color="#8F00FF" stop-opacity="0.15"/>
<stop offset="1" stop-color="#0066FF" stop-opacity="0.68"/>
</linearGradient>
<linearGradient id="paint2_linear_118_19" x1="12.9395" y1="-11.2283" x2="849.204" y2="182.531" gradientUnits="userSpaceOnUse">
<stop stop-color="#8F00FF" stop-opacity="0.15"/>
<stop offset="1" stop-color="#0066FF" stop-opacity="0.68"/>
</linearGradient>
<linearGradient id="paint3_linear_118_19" x1="12.9395" y1="-11.2283" x2="849.204" y2="182.531" gradientUnits="userSpaceOnUse">
<stop stop-color="#8F00FF" stop-opacity="0.15"/>
<stop offset="1" stop-color="#0066FF" stop-opacity="0.68"/>
</linearGradient>
<linearGradient id="paint4_linear_118_19" x1="12.9395" y1="-11.2283" x2="849.204" y2="182.531" gradientUnits="userSpaceOnUse">
<stop stop-color="#8F00FF" stop-opacity="0.15"/>
<stop offset="1" stop-color="#0066FF" stop-opacity="0.68"/>
</linearGradient>
<linearGradient id="paint5_linear_118_19" x1="12.9395" y1="-11.2283" x2="849.204" y2="182.531" gradientUnits="userSpaceOnUse">
<stop stop-color="#8F00FF" stop-opacity="0.15"/>
<stop offset="1" stop-color="#0066FF" stop-opacity="0.68"/>
</linearGradient>
<linearGradient id="paint6_linear_118_19" x1="12.9395" y1="-11.2283" x2="849.204" y2="182.531" gradientUnits="userSpaceOnUse">
<stop stop-color="#8F00FF" stop-opacity="0.15"/>
<stop offset="1" stop-color="#0066FF" stop-opacity="0.68"/>
</linearGradient>
<linearGradient id="paint7_linear_118_19" x1="12.9395" y1="-11.2283" x2="849.204" y2="182.531" gradientUnits="userSpaceOnUse">
<stop stop-color="#8F00FF" stop-opacity="0.15"/>
<stop offset="1" stop-color="#0066FF" stop-opacity="0.68"/>
</linearGradient>
</defs>
</svg>
